<svg width="225" height="25" viewBox="0 0 225 25" fill="none" xmlns="http://www.w3.org/2000/svg">
<path fill-rule="evenodd" clip-rule="evenodd" d="M64.7514 22.8595C64.7514 23.3664 64.4961 23.6198 63.9854 23.6198H54.9885C54.7712 23.6198 54.5946 23.5565 54.4588 23.4298C54.323 23.303 54.2551 23.124 54.2551 22.8926C54.2551 22.6942 54.3013 22.5344 54.3936 22.4132C54.486 22.292 54.6299 22.1928 54.8255 22.1157L55.5264 21.9008C55.7002 21.8457 55.836 21.741 55.9338 21.5868C56.0316 21.4325 56.0805 21.2121 56.0805 20.9256V11.3719C56.0805 11.2176 56.0425 11.0882 55.9664 10.9835C55.8904 10.8788 55.7491 10.7824 55.5427 10.6942L54.5974 10.3802C54.3474 10.259 54.1682 10.1295 54.0595 9.99174C53.9508 9.85399 53.8965 9.68595 53.8965 9.4876C53.8965 9.28926 53.9644 9.12672 54.1002 9L54.1536 8.95545C54.2837 8.85843 54.4534 8.80992 54.6625 8.80992H56.0928L56.0815 8.71333C56.051 8.52014 55.9746 8.33471 55.8523 8.15702C55.6894 7.92011 55.5046 7.65289 55.2982 7.35537C55.0917 7.05785 54.907 6.70248 54.744 6.28926C54.5811 5.87603 54.4996 5.36639 54.4996 4.76033C54.4996 3.3168 54.9885 2.16253 55.9664 1.29752C56.9444 0.432507 58.3352 0 60.1389 0C61.3015 0 62.2659 0.187328 63.0319 0.561983C63.798 0.936639 64.3711 1.43526 64.7514 2.05785C65.1317 2.68044 65.3219 3.36088 65.3219 4.09917C65.3219 4.9697 65.0964 5.62259 64.6455 6.05785C64.1946 6.49311 63.616 6.71074 62.9097 6.71074C62.1273 6.71074 61.4971 6.4573 61.019 5.95041C60.5409 5.44353 60.3019 4.77135 60.3019 3.93388V2.46281C60.3019 2.07713 60.2258 1.79339 60.0737 1.61157C59.9216 1.42975 59.688 1.33884 59.3729 1.33884C58.9708 1.33884 58.6666 1.47658 58.4601 1.75207C58.2537 2.02755 58.1505 2.42424 58.1505 2.94215C58.1505 3.47107 58.2727 3.96694 58.5172 4.42975C58.7617 4.89256 59.0632 5.32507 59.4218 5.72727C59.7803 6.12948 60.1389 6.51515 60.4975 6.8843C60.856 7.25344 61.1576 7.61708 61.402 7.97521L61.4717 8.08256C61.6037 8.29711 61.6918 8.51066 61.7358 8.72322L61.7507 8.80992H64.1647C64.4146 8.80992 64.6075 8.86226 64.7433 8.96694C64.8791 9.07162 64.947 9.23416 64.947 9.45455C64.947 9.78512 64.8058 10.0551 64.5232 10.2645C64.2407 10.4738 63.7952 10.5785 63.1868 10.5785H62.0295V20.876C62.0295 21.1846 62.0757 21.4215 62.1681 21.5868C62.2604 21.7521 62.4098 21.8512 62.6163 21.8843L64.018 22.0992C64.2679 22.1322 64.4526 22.2121 64.5721 22.3388C64.6917 22.4656 64.7514 22.6391 64.7514 22.8595ZM32.6593 23.2397C31.6814 23.7135 30.5405 23.9504 29.2366 23.9504C27.8567 23.9504 26.6207 23.6584 25.5287 23.0744C24.4367 22.4904 23.5755 21.6446 22.9453 20.5372C22.3151 19.4298 22 18.0826 22 16.4959C22 14.9642 22.3287 13.595 22.9861 12.3884C23.6434 11.1818 24.5589 10.2287 25.7324 9.52892C26.9059 8.8292 28.275 8.47934 29.8397 8.47934C31.1762 8.47934 32.3035 8.67769 33.2216 9.07438C34.1398 9.47107 34.8406 10.0083 35.3242 10.686C35.8077 11.3636 36.0495 12.1212 36.0495 12.9587C36.0495 13.8402 35.7968 14.5317 35.2916 15.0331C34.7863 15.5344 34.099 15.7851 33.2298 15.7851C32.3388 15.7851 31.6624 15.5289 31.2006 15.0165C30.7388 14.5041 30.5079 13.8017 30.5079 12.9091V11.8512C30.5079 11.3113 30.4101 10.9036 30.2145 10.6281C30.0189 10.3526 29.7419 10.2149 29.3833 10.2149C29.0247 10.2149 28.7015 10.3609 28.4135 10.6529C28.1256 10.9449 27.9028 11.3829 27.7453 11.9669C27.5877 12.551 27.509 13.2727 27.509 14.1322C27.509 15.3664 27.691 16.4022 28.055 17.2397C28.419 18.0771 28.9161 18.7052 29.5463 19.124C30.1765 19.5427 30.8936 19.7521 31.6977 19.7521C32.5018 19.7521 33.1755 19.6336 33.7187 19.3967C34.262 19.1598 34.6804 18.7603 34.9737 18.1983C35.1367 18.0441 35.2644 17.9449 35.3568 17.9008C35.4491 17.8567 35.5388 17.8347 35.6257 17.8347C35.7344 17.8457 35.824 17.8981 35.8946 17.9917C35.9652 18.0854 35.9951 18.2314 35.9843 18.4298C35.8973 19.5096 35.5659 20.4628 34.99 21.2893C34.4142 22.1157 33.6373 22.7658 32.6593 23.2397ZM49.2269 22.9091C48.0045 23.5813 46.5838 23.9174 44.9648 23.9174C43.3893 23.9174 42.0066 23.5895 40.8168 22.9339C39.627 22.2782 38.7007 21.3719 38.0379 20.2149C37.3751 19.0579 37.0437 17.719 37.0437 16.1983C37.0437 14.7438 37.3914 13.4353 38.0868 12.2727C38.7822 11.1102 39.7438 10.1873 40.9717 9.50413C42.1995 8.82094 43.612 8.47934 45.2093 8.47934C46.7957 8.47934 48.1811 8.80992 49.3655 9.47107C50.5498 10.1322 51.4734 11.0468 52.1362 12.2149C52.7991 13.3829 53.1305 14.7328 53.1305 16.2645C53.1305 17.719 52.7855 19.022 52.0955 20.1736C51.4055 21.3251 50.4493 22.2369 49.2269 22.9091ZM46.2035 22.1983C45.8667 22.2645 45.538 22.1157 45.2175 21.7521C44.8969 21.3884 44.5927 20.7769 44.3047 19.9174C44.0168 19.0579 43.7424 17.9284 43.4817 16.5289C43.2317 15.1295 43.0905 13.978 43.0579 13.0744C43.0253 12.1708 43.0905 11.4876 43.2535 11.0248C43.4165 10.562 43.6664 10.292 44.0032 10.2149C44.3401 10.1488 44.6687 10.2975 44.9893 10.6612C45.3098 11.0248 45.6168 11.6364 45.9102 12.4959C46.2035 13.3554 46.4806 14.4848 46.7414 15.8843C47.0022 17.2837 47.1461 18.438 47.1733 19.3471C47.2005 20.2562 47.1298 20.9421 46.9614 21.405C46.793 21.8678 46.5404 22.1322 46.2035 22.1983ZM75.3619 23.6198C75.8726 23.6198 76.1279 23.3664 76.1279 22.8595C76.1279 22.6391 76.0681 22.4656 75.9486 22.3388C75.8291 22.2121 75.6444 22.1322 75.3945 22.0992L73.9928 21.8843C73.7863 21.8512 73.6369 21.7521 73.5446 21.5868C73.4522 21.4215 73.406 21.1846 73.406 20.876V10.5785H74.5632C75.1717 10.5785 75.6172 10.4738 75.8997 10.2645C76.1822 10.0551 76.3235 9.78512 76.3235 9.45455C76.3235 9.23416 76.2556 9.07162 76.1198 8.96694C75.9839 8.86226 75.7911 8.80992 75.5411 8.80992H73.1271L73.1122 8.72322C73.0682 8.51066 72.9802 8.29711 72.8482 8.08256L72.7785 7.97521C72.534 7.61708 72.2325 7.25344 71.8739 6.8843C71.5154 6.51515 71.1568 6.12948 70.7982 5.72727C70.4397 5.32507 70.1381 4.89256 69.8937 4.42975C69.6492 3.96694 69.5269 3.47107 69.5269 2.94215C69.5269 2.42424 69.6302 2.02755 69.8366 1.75207C70.0431 1.47658 70.3473 1.33884 70.7493 1.33884C71.0644 1.33884 71.2981 1.42975 71.4502 1.61157C71.6023 1.79339 71.6784 2.07713 71.6784 2.46281V3.93388C71.6784 4.77135 71.9174 5.44353 72.3955 5.95041C72.8736 6.4573 73.5038 6.71074 74.2862 6.71074C74.9924 6.71074 75.571 6.49311 76.022 6.05785C76.4729 5.62259 76.6984 4.9697 76.6984 4.09917C76.6984 3.36088 76.5082 2.68044 76.1279 2.05785C75.7476 1.43526 75.1744 0.936639 74.4084 0.561983C73.6424 0.187328 72.678 0 71.5154 0C69.7117 0 68.3208 0.432507 67.3429 1.29752C66.365 2.16253 65.876 3.3168 65.876 4.76033C65.876 5.36639 65.9575 5.87603 66.1205 6.28926C66.2835 6.70248 66.4682 7.05785 66.6747 7.35537C66.8811 7.65289 67.0658 7.92011 67.2288 8.15702C67.3511 8.33471 67.4275 8.52014 67.458 8.71333L67.4692 8.80992H66.039C65.8299 8.80992 65.6602 8.85843 65.5301 8.95545L65.4767 9C65.3409 9.12672 65.273 9.28926 65.273 9.4876C65.273 9.68595 65.3273 9.85399 65.436 9.99174C65.5446 10.1295 65.7239 10.259 65.9738 10.3802L66.9192 10.6942C67.1256 10.7824 67.2669 10.8788 67.3429 10.9835C67.419 11.0882 67.457 11.2176 67.457 11.3719V20.9256C67.457 21.2121 67.4081 21.4325 67.3103 21.5868C67.2125 21.741 67.0767 21.8457 66.9029 21.9008L66.202 22.1157C66.0064 22.1928 65.8625 22.292 65.7701 22.4132C65.6777 22.5344 65.6316 22.6942 65.6316 22.8926C65.6316 23.124 65.6995 23.303 65.8353 23.4298C65.9711 23.5565 66.1477 23.6198 66.365 23.6198H75.3619ZM88.1237 23.1405C87.0697 23.6804 85.8528 23.9504 84.4728 23.9504C82.9516 23.9504 81.6151 23.6336 80.4633 23C79.3116 22.3664 78.4124 21.4793 77.7659 20.3388C77.1194 19.1983 76.7961 17.8788 76.7961 16.3802C76.7961 14.8044 77.1085 13.4242 77.7333 12.2397C78.3581 11.0551 79.2627 10.1322 80.447 9.47107C81.6314 8.80992 83.0548 8.47934 84.7173 8.47934C86.1299 8.47934 87.3468 8.75758 88.3682 9.31405C89.3896 9.87052 90.1746 10.6253 90.7234 11.5785C91.2721 12.5317 91.5464 13.5923 91.5464 14.7603C91.5464 15.2672 91.4106 15.6667 91.139 15.9587L91.0742 16.0235C90.8064 16.2723 90.4369 16.3967 89.9655 16.3967H82.5147L82.5307 16.4729C82.7284 17.3804 83.0661 18.1071 83.5438 18.6529C84.3587 19.584 85.4453 20.0496 86.8035 20.0496C87.6728 20.0496 88.4416 19.8512 89.1098 19.4545C89.778 19.0578 90.2263 18.5069 90.4544 17.8017C90.5848 17.6584 90.7016 17.562 90.8049 17.5124C90.9081 17.4628 90.9977 17.438 91.0738 17.438C91.1824 17.438 91.2748 17.4821 91.3509 17.5702C91.4269 17.6584 91.465 17.8072 91.465 18.0165C91.465 19.0964 91.1716 20.0854 90.5848 20.9835C89.9981 21.8815 89.1777 22.6005 88.1237 23.1405ZM82.3447 15.0717C82.3291 14.8181 82.3214 14.5546 82.3214 14.281C82.3214 13.2452 82.3975 12.4298 82.5496 11.8347C82.7017 11.2397 82.8973 10.8182 83.1363 10.5702C83.3754 10.3223 83.6416 10.1983 83.935 10.1983C84.3153 10.1983 84.6711 10.5234 85.0025 11.1736C85.3339 11.8237 85.4996 12.9036 85.4996 14.4132C85.4996 14.876 85.2932 15.1074 84.8803 15.1074H82.3467L82.3447 15.0717ZM103.705 23.1405C102.651 23.6804 101.434 23.9504 100.054 23.9504C98.5331 23.9504 97.1967 23.6336 96.0449 23C94.8931 22.3664 93.994 21.4793 93.3475 20.3388C92.7009 19.1983 92.3777 17.8788 92.3777 16.3802C92.3777 14.8044 92.6901 13.4242 93.3148 12.2397C93.9396 11.0551 94.8442 10.1322 96.0286 9.47107C97.213 8.80992 98.6364 8.47934 100.299 8.47934C101.711 8.47934 102.928 8.75758 103.95 9.31405C104.971 9.87052 105.756 10.6253 106.305 11.5785C106.854 12.5317 107.128 13.5923 107.128 14.7603C107.128 15.2672 106.992 15.6667 106.721 15.9587L106.656 16.0235C106.388 16.2723 106.018 16.3967 105.547 16.3967H98.0963L98.1122 16.4729C98.3099 17.3804 98.6476 18.1071 99.1253 18.6529C99.9403 19.584 101.027 20.0496 102.385 20.0496C103.254 20.0496 104.023 19.8512 104.691 19.4545C105.36 19.0578 105.808 18.5069 106.036 17.8017C106.166 17.6584 106.283 17.562 106.386 17.5124C106.49 17.4628 106.579 17.438 106.655 17.438C106.764 17.438 106.856 17.4821 106.932 17.5702C107.008 17.6584 107.046 17.8072 107.046 18.0165C107.046 19.0964 106.753 20.0854 106.166 20.9835C105.58 21.8815 104.759 22.6005 103.705 23.1405ZM97.9262 15.0717C97.9107 14.8181 97.9029 14.5546 97.9029 14.281C97.9029 13.2452 97.979 12.4298 98.1311 11.8347C98.2832 11.2397 98.4788 10.8182 98.7179 10.5702C98.9569 10.3223 99.2231 10.1983 99.5165 10.1983C99.8968 10.1983 100.253 10.5234 100.584 11.1736C100.915 11.8237 101.081 12.9036 101.081 14.4132C101.081 14.876 100.875 15.1074 100.462 15.1074H97.9283L97.9262 15.0717ZM117.6 23.4132C117.464 23.551 117.266 23.6198 117.005 23.6198H108.856C108.617 23.6198 108.429 23.5537 108.293 23.4215C108.158 23.2893 108.09 23.1074 108.09 22.876C108.09 22.6997 108.13 22.5537 108.212 22.438C108.293 22.3223 108.405 22.2149 108.546 22.1157L108.921 21.9669C109.062 21.9008 109.16 21.7961 109.214 21.6529C109.269 21.5096 109.296 21.2727 109.296 20.9421V12.5455C109.296 12.281 109.266 12.0909 109.206 11.9752C109.146 11.8595 109.046 11.7686 108.905 11.7025L108.481 11.6529C108.329 11.5647 108.217 11.4711 108.147 11.3719C108.076 11.2727 108.041 11.146 108.041 10.9917C108.041 10.8154 108.095 10.6584 108.204 10.5207C108.312 10.3829 108.497 10.2645 108.758 10.1653L113.387 8.82645C113.658 8.71625 113.886 8.63912 114.071 8.59504C114.256 8.55096 114.413 8.52893 114.544 8.52893C114.729 8.52893 114.867 8.59504 114.959 8.72727L114.989 8.77523C115.065 8.91344 115.118 9.13437 115.147 9.43802L115.271 12.0064L115.299 11.9116C115.354 11.7327 115.415 11.5611 115.481 11.3967C115.878 10.4105 116.402 9.67769 117.054 9.19835C117.706 8.71901 118.418 8.47934 119.189 8.47934C120.123 8.47934 120.841 8.79339 121.34 9.42149C121.84 10.0496 122.09 11.0028 122.09 12.281C122.09 13.5482 121.829 14.4793 121.308 15.0744C120.786 15.6694 120.113 15.9669 119.287 15.9669C118.483 15.9669 117.888 15.7631 117.502 15.3554C117.116 14.9477 116.913 14.3691 116.891 13.6198L116.875 12.9587C116.864 12.7052 116.815 12.5069 116.728 12.3636C116.641 12.2204 116.5 12.1488 116.304 12.1488C116.109 12.1488 115.937 12.2507 115.791 12.4545C115.644 12.6584 115.533 12.9697 115.457 13.3884C115.381 13.8072 115.343 14.3416 115.343 14.9917V20.8099C115.343 21.1185 115.391 21.3636 115.489 21.5455C115.587 21.7273 115.739 21.8402 115.946 21.8843L117.168 22.1322C117.396 22.1653 117.559 22.2507 117.657 22.3884C117.755 22.5262 117.804 22.6887 117.804 22.876C117.804 23.0964 117.736 23.2755 117.6 23.4132ZM130.631 23.9174C132.25 23.9174 133.67 23.5813 134.893 22.9091C136.115 22.2369 137.071 21.3251 137.761 20.1736C138.451 19.022 138.796 17.719 138.796 16.2645C138.796 14.7328 138.465 13.3829 137.802 12.2149C137.139 11.0468 136.216 10.1322 135.031 9.47107C133.847 8.80992 132.462 8.47934 130.875 8.47934C129.278 8.47934 127.865 8.82094 126.637 9.50413C125.41 10.1873 124.448 11.1102 123.753 12.2727C123.057 13.4353 122.71 14.7438 122.71 16.1983C122.71 17.719 123.041 19.0579 123.704 20.2149C124.367 21.3719 125.293 22.2782 126.483 22.9339C127.672 23.5895 129.055 23.9174 130.631 23.9174ZM130.883 21.7521C131.204 22.1157 131.533 22.2645 131.869 22.1983C132.206 22.1322 132.459 21.8678 132.627 21.405C132.796 20.9421 132.866 20.2562 132.839 19.3471C132.812 18.438 132.668 17.2837 132.407 15.8843C132.146 14.4848 131.869 13.3554 131.576 12.4959C131.283 11.6364 130.976 11.0248 130.655 10.6612C130.335 10.2975 130.006 10.1488 129.669 10.2149C129.332 10.292 129.082 10.562 128.919 11.0248C128.756 11.4876 128.691 12.1708 128.724 13.0744C128.756 13.978 128.898 15.1295 129.147 16.5289C129.408 17.9284 129.683 19.0579 129.971 19.9174C130.259 20.7769 130.563 21.3884 130.883 21.7521ZM151.721 23.9504C152.634 23.9504 153.384 23.7824 153.97 23.4463C154.557 23.1102 154.994 22.7107 155.282 22.2479C155.57 21.7851 155.714 21.3609 155.714 20.9752C155.714 20.8099 155.679 20.6722 155.608 20.562C155.538 20.4518 155.443 20.3967 155.323 20.3967C155.269 20.3967 155.22 20.4077 155.176 20.4298C155.133 20.4518 155.095 20.4848 155.062 20.5289C155.008 20.7273 154.924 20.865 154.81 20.9421C154.696 21.0193 154.573 21.0578 154.443 21.0578C154.258 21.0578 154.12 20.9945 154.027 20.8678C153.935 20.741 153.889 20.573 153.889 20.3636V13.0579C153.889 11.6033 153.397 10.4766 152.414 9.67769C151.43 8.87879 149.89 8.47934 147.793 8.47934C146.163 8.47934 144.802 8.6832 143.71 9.09091C142.618 9.49862 141.798 10.0193 141.249 10.6529C140.701 11.2865 140.426 11.9339 140.426 12.595C140.426 13.3003 140.63 13.8375 141.037 14.2066C141.445 14.5758 142.034 14.7603 142.806 14.7603C143.751 14.7603 144.495 14.5041 145.039 13.9917C145.582 13.4793 145.854 12.8154 145.854 12V10.7438C145.854 10.4353 145.949 10.1956 146.139 10.0248C146.329 9.85399 146.565 9.76859 146.848 9.76859C147.152 9.76859 147.394 9.88154 147.573 10.1074C147.752 10.3333 147.842 10.6391 147.842 11.0248L147.842 15.843L147.755 15.8241C147.493 15.7735 147.189 15.7446 146.844 15.7373L146.669 15.7355C144.332 15.7355 142.591 16.1322 141.445 16.9256C140.299 17.719 139.725 18.8264 139.725 20.2479C139.725 21.3278 140.119 22.2149 140.907 22.9091C141.695 23.6033 142.741 23.9504 144.044 23.9504C145.022 23.9504 145.935 23.7493 146.783 23.3471C147.418 23.0455 147.935 22.6493 148.332 22.1586L148.355 22.1299L148.379 22.2039C148.504 22.5612 148.733 22.8813 149.067 23.1642L149.17 23.2479C149.773 23.7163 150.624 23.9504 151.721 23.9504ZM146.106 20.8347C146.372 21.1928 146.723 21.3719 147.158 21.3719L147.251 21.3687C147.436 21.3558 147.615 21.3041 147.789 21.2137L147.842 21.1837V16.9422L147.761 16.9174C147.576 16.8678 147.359 16.843 147.109 16.843C146.685 16.843 146.345 17.0413 146.09 17.438C145.835 17.8347 145.707 18.4187 145.707 19.1901C145.707 19.9284 145.84 20.4766 146.106 20.8347ZM163.212 24C165.146 24 166.629 23.5537 167.661 22.6612C168.694 21.7686 169.21 20.551 169.21 19.0083C169.21 18.0716 169.036 17.2507 168.688 16.5455C168.34 15.8402 167.732 15.2149 166.863 14.6694C165.993 14.124 164.771 13.6088 163.195 13.124C162.609 12.9366 162.155 12.7466 161.834 12.5537C161.514 12.3609 161.294 12.1543 161.174 11.9339C161.055 11.7135 160.995 11.4766 160.995 11.2231C160.995 10.8485 161.131 10.5455 161.403 10.314C161.674 10.0826 162.076 9.96694 162.609 9.96694C163.348 9.96694 164.046 10.2149 164.703 10.7107C165.36 11.2066 166.086 12.0551 166.879 13.2562C167.085 13.5096 167.292 13.6942 167.498 13.8099C167.705 13.9256 167.9 13.9614 168.085 13.9174C168.313 13.8512 168.454 13.6997 168.509 13.4628C168.563 13.2259 168.552 12.8871 168.476 12.4463L168.052 9.40496C168.009 9.0854 167.927 8.8595 167.808 8.72727C167.688 8.59504 167.531 8.52893 167.335 8.52893C167.161 8.52893 166.944 8.58953 166.683 8.71074C166.423 8.83196 166.164 8.95592 165.909 9.08264C165.654 9.20937 165.461 9.27273 165.331 9.27273C165.211 9.27273 165.034 9.20661 164.801 9.07438C164.567 8.94215 164.239 8.80992 163.815 8.67769C163.391 8.54545 162.842 8.47934 162.169 8.47934C161.049 8.47934 160.042 8.6832 159.145 9.09091C158.249 9.49862 157.542 10.0799 157.026 10.8347C156.51 11.5895 156.252 12.4904 156.252 13.5372C156.252 14.4628 156.445 15.2727 156.831 15.9669C157.217 16.6612 157.806 17.2562 158.599 17.7521C159.392 18.2479 160.392 18.6501 161.598 18.9587C162.38 19.168 162.981 19.3802 163.399 19.595C163.817 19.8099 164.105 20.0441 164.263 20.2975C164.421 20.551 164.499 20.832 164.499 21.1405C164.499 21.5482 164.363 21.8843 164.092 22.1488C163.82 22.4132 163.407 22.5455 162.853 22.5455C162.332 22.5455 161.834 22.4325 161.362 22.2066C160.889 21.9807 160.403 21.5923 159.903 21.0413C159.403 20.4904 158.844 19.7355 158.224 18.7769C158.04 18.5234 157.83 18.3471 157.597 18.2479C157.363 18.1488 157.127 18.1543 156.888 18.2645C156.66 18.3526 156.513 18.5399 156.448 18.8264C156.383 19.1129 156.399 19.4656 156.497 19.8843L157.002 23.1736C157.078 23.5041 157.187 23.7245 157.328 23.8347C157.469 23.9449 157.621 24 157.784 24C157.969 24 158.194 23.9394 158.461 23.8182L159.259 23.4545C159.525 23.3333 159.74 23.2727 159.903 23.2727C160.066 23.2727 160.281 23.3333 160.547 23.4545C160.813 23.5758 161.161 23.697 161.59 23.8182C162.019 23.9394 162.56 24 163.212 24ZM178.663 23.3802C177.946 23.7603 177.098 23.9504 176.12 23.9504C174.469 23.9504 173.227 23.5482 172.396 22.7438C171.565 21.9394 171.149 20.6722 171.149 18.9422V11.4711C171.149 11.2397 171.127 11.0634 171.084 10.9421C171.041 10.8209 170.932 10.7218 170.758 10.6446L169.992 10.3967C169.807 10.3085 169.688 10.2011 169.633 10.0744C169.579 9.94766 169.552 9.79063 169.552 9.60331C169.552 9.3719 169.633 9.18182 169.796 9.03306C169.959 8.8843 170.16 8.80992 170.399 8.80992H171.198C171.296 8.80992 171.399 8.77135 171.508 8.69421C171.616 8.61708 171.763 8.46281 171.948 8.23141L174.963 5.70248C175.18 5.43802 175.398 5.23691 175.615 5.09917C175.832 4.96143 176.05 4.89256 176.267 4.89256C176.517 4.89256 176.712 4.9697 176.854 5.12397L176.898 5.17866C177.01 5.3332 177.066 5.55739 177.066 5.85124L177.065 8.80992H180.472C180.711 8.80992 180.896 8.86226 181.026 8.96694C181.157 9.07163 181.222 9.23416 181.222 9.45455C181.222 9.76309 181.086 10.0275 180.814 10.2479L180.754 10.2935C180.48 10.4835 180.065 10.5785 179.51 10.5785H177.065L177.066 18.1157C177.066 18.9421 177.204 19.5537 177.481 19.9504C177.758 20.3471 178.163 20.5455 178.695 20.5455C178.924 20.5455 179.136 20.4959 179.331 20.3967C179.527 20.2975 179.703 20.168 179.861 20.0083C180.018 19.8485 180.168 19.6694 180.309 19.4711C180.45 19.2727 180.586 19.0744 180.717 18.876C180.825 18.832 180.92 18.8512 181.002 18.9339C181.083 19.0165 181.119 19.1846 181.108 19.438C181.032 20.3306 180.784 21.1157 180.366 21.7934C179.948 22.4711 179.38 23 178.663 23.3802ZM189.339 23.9504C190.718 23.9504 191.935 23.6804 192.989 23.1405C194.043 22.6005 194.864 21.8815 195.451 20.9835C196.037 20.0854 196.331 19.0964 196.331 18.0165C196.331 17.8072 196.293 17.6584 196.217 17.5702C196.14 17.4821 196.048 17.438 195.939 17.438C195.863 17.438 195.774 17.4628 195.671 17.5124C195.567 17.562 195.451 17.6584 195.32 17.8017C195.092 18.5069 194.644 19.0578 193.975 19.4545C193.307 19.8512 192.538 20.0496 191.669 20.0496C190.311 20.0496 189.224 19.584 188.409 18.6529C187.932 18.1071 187.594 17.3804 187.396 16.4729L187.38 16.3967H194.831C195.303 16.3967 195.672 16.2723 195.94 16.0235L196.005 15.9587C196.276 15.6667 196.412 15.2672 196.412 14.7603C196.412 13.5923 196.138 12.5317 195.589 11.5785C195.04 10.6253 194.255 9.87052 193.234 9.31405C192.212 8.75758 190.996 8.47934 189.583 8.47934C187.921 8.47934 186.497 8.80992 185.313 9.47107C184.128 10.1322 183.224 11.0551 182.599 12.2397C181.974 13.4242 181.662 14.8044 181.662 16.3802C181.662 17.8788 181.985 19.1983 182.632 20.3388C183.278 21.4793 184.177 22.3664 185.329 23C186.481 23.6336 187.817 23.9504 189.339 23.9504ZM187.187 14.281C187.187 14.5546 187.195 14.8181 187.21 15.0717L187.212 15.1074H189.746C190.159 15.1074 190.365 14.876 190.365 14.4132C190.365 12.9036 190.2 11.8237 189.868 11.1736C189.537 10.5234 189.181 10.1983 188.801 10.1983C188.507 10.1983 188.241 10.3223 188.002 10.5702C187.763 10.8182 187.567 11.2397 187.415 11.8347C187.263 12.4298 187.187 13.2452 187.187 14.281ZM206.289 23.6198C206.55 23.6198 206.748 23.551 206.884 23.4132C207.02 23.2755 207.088 23.0964 207.088 22.876C207.088 22.6887 207.039 22.5262 206.941 22.3884C206.843 22.2507 206.68 22.1653 206.452 22.1322L205.23 21.8843C205.023 21.8402 204.871 21.7273 204.773 21.5455C204.676 21.3636 204.627 21.1185 204.627 20.8099V14.9917C204.627 14.3416 204.665 13.8072 204.741 13.3884C204.817 12.9697 204.928 12.6584 205.075 12.4545C205.222 12.2507 205.393 12.1488 205.588 12.1488C205.784 12.1488 205.925 12.2204 206.012 12.3636C206.099 12.5069 206.148 12.7052 206.159 12.9587L206.175 13.6198C206.197 14.3691 206.4 14.9477 206.786 15.3554C207.172 15.7631 207.767 15.9669 208.571 15.9669C209.397 15.9669 210.07 15.6694 210.592 15.0744C211.114 14.4793 211.374 13.5482 211.374 12.281C211.374 11.0028 211.124 10.0496 210.625 9.42149C210.125 8.79339 209.408 8.47934 208.473 8.47934C207.702 8.47934 206.99 8.71901 206.338 9.19835C205.686 9.67769 205.162 10.4105 204.765 11.3967C204.699 11.5611 204.639 11.7327 204.583 11.9116L204.555 12.0069L204.431 9.43802C204.402 9.13437 204.35 8.91344 204.273 8.77523L204.244 8.72727C204.151 8.59504 204.013 8.52893 203.828 8.52893C203.698 8.52893 203.54 8.55096 203.355 8.59504C203.171 8.63912 202.942 8.71625 202.671 8.82645L198.042 10.1653C197.781 10.2645 197.596 10.3829 197.488 10.5207C197.379 10.6584 197.325 10.8154 197.325 10.9917C197.325 11.146 197.36 11.2727 197.431 11.3719C197.501 11.4711 197.613 11.5647 197.765 11.6529L198.189 11.7025C198.33 11.7686 198.43 11.8595 198.49 11.9752C198.55 12.0909 198.58 12.281 198.58 12.5455V20.9421C198.58 21.2727 198.553 21.5096 198.498 21.6529C198.444 21.7961 198.346 21.9008 198.205 21.9669L197.83 22.1157C197.689 22.2149 197.577 22.3223 197.496 22.438C197.414 22.5537 197.374 22.6997 197.374 22.876C197.374 23.1074 197.442 23.2893 197.577 23.4215C197.713 23.5537 197.901 23.6198 198.14 23.6198H206.289ZM223.452 22.6612C222.419 23.5537 220.936 24 219.002 24C218.35 24 217.81 23.9394 217.38 23.8182C216.951 23.697 216.603 23.5758 216.337 23.4545C216.071 23.3333 215.856 23.2727 215.693 23.2727C215.53 23.2727 215.316 23.3333 215.05 23.4545L214.251 23.8182C213.985 23.9394 213.759 24 213.575 24C213.412 24 213.26 23.9449 213.118 23.8347C212.977 23.7245 212.868 23.5041 212.792 23.1736L212.287 19.8843C212.189 19.4656 212.173 19.1129 212.238 18.8264C212.303 18.5399 212.45 18.3526 212.678 18.2645C212.917 18.1543 213.154 18.1488 213.387 18.2479C213.621 18.3471 213.83 18.5234 214.015 18.7769C214.634 19.7355 215.194 20.4904 215.693 21.0413C216.193 21.5923 216.68 21.9807 217.152 22.2066C217.625 22.4325 218.122 22.5455 218.644 22.5455C219.198 22.5455 219.611 22.4132 219.882 22.1488C220.154 21.8843 220.29 21.5482 220.29 21.1405C220.29 20.832 220.211 20.551 220.053 20.2975C219.896 20.0441 219.608 19.8099 219.19 19.595C218.771 19.3802 218.171 19.168 217.389 18.9587C216.182 18.6501 215.183 18.2479 214.39 17.7521C213.596 17.2562 213.007 16.6612 212.621 15.9669C212.235 15.2727 212.043 14.4628 212.043 13.5372C212.043 12.4904 212.301 11.5895 212.817 10.8347C213.333 10.0799 214.039 9.49862 214.936 9.09091C215.832 8.6832 216.84 8.47934 217.959 8.47934C218.633 8.47934 219.181 8.54545 219.605 8.67769C220.029 8.80992 220.358 8.94215 220.591 9.07438C220.825 9.20661 221.001 9.27273 221.121 9.27273C221.251 9.27273 221.444 9.20937 221.7 9.08264C221.955 8.95592 222.213 8.83196 222.474 8.71074C222.734 8.58953 222.952 8.52893 223.126 8.52893C223.321 8.52893 223.479 8.59504 223.598 8.72727C223.718 8.8595 223.799 9.0854 223.843 9.40496L224.267 12.4463C224.343 12.8871 224.353 13.2259 224.299 13.4628C224.245 13.6997 224.104 13.8512 223.875 13.9174C223.691 13.9614 223.495 13.9256 223.289 13.8099C223.082 13.6942 222.876 13.5096 222.669 13.2562C221.876 12.0551 221.151 11.2066 220.493 10.7107C219.836 10.2149 219.138 9.96694 218.399 9.96694C217.867 9.96694 217.465 10.0826 217.193 10.314C216.921 10.5455 216.785 10.8485 216.785 11.2231C216.785 11.4766 216.845 11.7135 216.965 11.9339C217.084 12.1543 217.304 12.3609 217.625 12.5537C217.945 12.7466 218.399 12.9366 218.986 13.124C220.561 13.6088 221.784 14.124 222.653 14.6694C223.522 15.2149 224.131 15.8402 224.478 16.5455C224.826 17.2507 225 18.0716 225 19.0083C225 20.551 224.484 21.7686 223.452 22.6612Z" fill="#333D4B"/>
<path fill-rule="evenodd" clip-rule="evenodd" d="M13.4893 4.00268C9.97493 0.491126 4.76554 -0.0143813 1.87661 2.87766C-1.01383 5.76821 -0.508336 10.9778 3.00008 14.4908C3.93606 15.4269 5.01454 16.1424 6.15301 16.6554C6.52651 14.4848 7.59748 12.3983 9.22344 10.6853C8.68496 10.4933 8.13297 10.3313 7.55698 10.1738C4.14606 9.23776 2.4511 6.39222 2.05511 3.05617C2.38262 3.45002 2.68082 3.86313 2.97814 4.27503C3.555 5.0742 4.12855 5.86879 4.90654 6.50922C6.11679 7.50576 7.44522 7.89045 8.89855 8.3113C8.95466 8.32755 9.01096 8.34385 9.06745 8.36025C9.75593 8.55975 10.3544 8.85525 10.9034 9.20026C12.3464 8.14574 13.9738 7.44373 15.6538 7.15423C15.1423 6.01571 14.4253 4.93869 13.4893 4.00268ZM7.54648 17.4894C7.76998 15.3159 8.82296 13.1903 10.5104 11.5028C14.0248 7.99124 19.2342 7.48423 22.1232 10.3778C25.0136 13.2683 24.5096 18.4779 20.9967 21.991C19.3092 23.6785 17.1838 24.7315 15.0103 24.9565C14.7208 24.985 14.4343 25 14.1538 25C12.2849 25 10.6154 24.3445 9.38544 23.1145C7.96947 21.7 7.31549 19.7019 7.54648 17.4894ZM12.6869 19.2729C13.8388 18.3939 15.0853 18.0459 16.4413 17.6754C19.8522 16.7394 21.5457 13.8938 21.9432 10.5578C21.6184 10.9494 21.3224 11.3598 21.0273 11.7688C20.4487 12.5709 19.8735 13.3681 19.0917 14.0108C17.8778 15.009 16.5463 15.3943 15.0864 15.8168L14.9308 15.8619C11.5934 16.8309 9.94343 19.6524 9.56244 22.936C9.89121 22.541 10.1924 22.1309 10.492 21.7229C11.1423 20.8374 11.7852 19.962 12.6869 19.2729Z" fill="#0E8784"/>
</svg>
